# xmcd
#
# Track frame offsets: 
#        150
#        9561
#        19972
#        33302
#        44215
#        56550
#        66482
#        76961
#        89379
#        99235
#        110050
#        122534
#        132019
#        142398
#        155194
#        167190
#        178549
#        191649
#        203087
#        215327
#
# Disc length: 3004 seconds
#
# Revision: 0
# Processed by: cddbd v1.5.2PL0 Copyright (c) Steve Scherf et al.
# Submitted via: ExactAudioCopy v1.3
#
DISCID=280bba14
DTITLE=Sam Cooke - Singles Collection 1951-1962
DYEAR=2017
DGENRE=Soul
TTITLE0=Jesus, wash away my troubles
TTITLE1=Pilgrim of sorrow
TTITLE2=Forever
TTITLE3=Loveable
TTITLE4=You send me
TTITLE5=I'll come running back to you
TTITLE6=That's all I need to know
TTITLE7=I don't want to cry
TTITLE8=Stealing kisses
TTITLE9=All of my life
TTITLE10=Win your love for me
TTITLE11=Almost in your arms
TTITLE12=Love you most of all
TTITLE13=Blue moon
TTITLE14=(I love you) For sentimental reasons
TTITLE15=Desire me
TTITLE16=You were made for me
TTITLE17=Lonely island
TTITLE18=Everybody like to cha cha cha
TTITLE19=Little things you do
EXTD=
EXTT0=
EXTT1=
EXTT2=
EXTT3=
EXTT4=
EXTT5=
EXTT6=
EXTT7=
EXTT8=
EXTT9=
EXTT10=
EXTT11=
EXTT12=
EXTT13=
EXTT14=
EXTT15=
EXTT16=
EXTT17=
EXTT18=
EXTT19=
PLAYORDER=
